<?xml version="1.0" standalone="no"?>
<!DOCTYPE svg PUBLIC "-//W3C//DTD SVG 20010904//EN"
 "http://www.w3.org/TR/2001/REC-SVG-20010904/DTD/svg10.dtd">
<svg version="1.0" xmlns="http://www.w3.org/2000/svg"
 width="424.000000pt" height="365.000000pt" viewBox="0 0 424.000000 365.000000"
 preserveAspectRatio="xMidYMid meet">

<g transform="translate(0.000000,365.000000) scale(0.100000,-0.100000)"
fill="#000000" stroke="none">
<path d="M1965 3572 c-34 -21 -165 -98 -293 -172 l-231 -135 -1 -432 c0 -238
-2 -433 -5 -433 -2 0 -57 31 -122 69 -65 37 -129 72 -143 76 l-25 7 25 -19
c25 -20 220 -132 252 -145 15 -6 18 -21 18 -92 l0 -86 -40 -20 -40 -20 0 -73
0 -72 53 -29 c28 -16 65 -38 81 -49 27 -19 27 -21 9 -31 -38 -21 -70 -52 -77
-73 -8 -26 27 -70 78 -97 l36 -19 80 47 c81 47 100 54 100 36 0 -5 -26 -23
-57 -39 -105 -54 -106 -56 -27 -75 88 -21 201 -35 285 -36 51 0 77 -6 120 -27
l54 -28 3 -112 3 -113 -276 0 -276 0 -24 -25 -25 -24 0 -401 0 -401 23 -23 23
-23 570 4 c562 4 569 4 587 24 16 19 17 55 17 421 l0 399 -25 24 -24 25 -276
0 -275 0 0 106 c0 66 4 103 10 99 5 -3 49 16 97 42 66 37 110 53 176 66 49 10
103 23 120 31 l32 13 -33 17 c-18 9 -30 21 -27 27 4 6 20 2 39 -11 19 -11 41
-20 50 -20 28 0 126 52 147 78 20 26 26 72 9 72 -21 0 -8 22 25 41 35 21 35
21 35 95 l0 74 -40 20 -40 20 0 116 0 115 31 17 c61 34 283 162 287 167 3 3 3
7 0 10 -5 5 -264 -138 -282 -156 -34 -33 -36 -15 -38 393 l-3 402 -290 166
c-159 91 -315 180 -345 197 l-55 31 -60 -36z m379 -284 c-5 -8 -2 -9 10 -5 9
4 15 3 12 -2 -3 -5 6 -12 21 -16 15 -3 39 -15 54 -26 15 -10 32 -19 39 -19 6
0 8 -5 4 -12 -4 -6 -3 -8 4 -5 12 8 42 -1 42 -13 0 -13 -363 -230 -385 -230
-6 0 -15 4 -20 9 -6 5 -45 28 -88 50 -43 22 -85 48 -94 57 -9 9 -26 14 -40 11
-13 -2 -26 0 -30 6 -4 6 -1 7 7 2 10 -6 11 -2 7 17 -7 26 16 48 28 28 4 -6 14
-10 23 -10 14 0 14 2 3 9 -9 6 3 7 30 4 24 -2 64 0 89 5 37 6 44 12 42 27 -2
15 -1 17 6 6 6 -7 15 -10 22 -6 7 4 16 2 20 -5 7 -11 14 -10 35 4 15 10 34 14
46 11 13 -4 21 -1 25 10 6 13 8 14 15 3 6 -9 9 -10 9 -1 0 7 7 10 16 6 10 -4
22 0 28 8 6 9 19 18 29 22 26 10 21 30 -5 22 -16 -4 -19 -3 -9 3 16 12 -2 26
-21 17 -7 -4 -4 1 6 9 23 19 30 20 20 4z m-675 -59 c42 -23 78 -45 81 -48 3
-4 18 -12 33 -19 19 -8 27 -18 23 -27 -3 -10 0 -12 11 -8 13 5 15 2 11 -15 -5
-16 1 -23 23 -33 37 -15 51 -34 18 -24 l-24 7 23 -17 c12 -9 26 -14 30 -11 5
3 9 -1 9 -9 0 -19 0 -19 -47 5 -29 15 -38 25 -34 38 5 13 4 14 -4 3 -8 -10
-21 -7 -68 20 -149 82 -221 129 -221 143 0 8 4 13 9 10 4 -3 15 2 24 10 8 9
18 16 21 16 4 0 40 -19 82 -41z m-111 -133 c67 -35 224 -137 202 -131 -60 16
-264 128 -253 139 10 9 21 7 51 -8z m-11 -163 c-2 -16 -4 -5 -4 22 0 28 2 40
4 28 2 -13 2 -35 0 -50z m408 57 c3 -6 -1 -7 -9 -4 -18 7 -21 14 -7 14 6 0 13
-4 16 -10z m595 -62 c0 -41 -3 -44 -50 -70 l-50 -28 0 44 c0 41 3 46 43 70 23
14 45 25 50 26 4 0 7 -19 7 -42z m-940 -4 c0 -6 16 -18 36 -28 20 -9 34 -19
31 -22 -8 -8 -67 25 -73 41 -3 8 -14 17 -25 20 -10 4 -19 10 -19 15 0 4 11 3
25 -3 14 -7 25 -17 25 -23z m-43 -36 c-3 -8 -6 -5 -6 6 -1 11 2 17 5 13 3 -3
4 -12 1 -19z m-20 -20 c-3 -7 -5 -2 -5 12 0 14 2 19 5 13 2 -7 2 -19 0 -25z
m180 -50 c-2 -18 -4 -6 -4 27 0 33 2 48 4 33 2 -15 2 -42 0 -60z m701 53 c0
-17 -5 -32 -14 -35 -16 -6 -19 10 -3 20 8 5 8 9 -1 14 -7 4 -9 13 -6 19 13 20
23 12 24 -18z m-42 -18 c-10 -10 -19 5 -10 18 6 11 8 11 12 0 2 -7 1 -15 -2
-18z m-39 -43 c0 -27 -3 -50 -7 -50 -6 0 -7 88 -1 98 6 10 8 -5 8 -48z m-800
8 c-3 -7 -5 -2 -5 12 0 14 2 19 5 13 2 -7 2 -19 0 -25z m841 -3 c0 -36 -15
-40 -16 -5 0 17 3 30 7 30 5 0 9 -11 9 -25z m-68 6 c0 -5 -7 -11 -15 -15 -15
-5 -20 5 -8 17 9 10 23 9 23 -2z m110 0 c0 -12 -20 -25 -27 -18 -7 7 6 27 18
27 5 0 9 -4 9 -9z m-152 -36 c0 -19 -3 -35 -8 -35 -8 0 -11 50 -3 63 8 14 11
7 11 -28z m-658 4 c0 -4 -7 -6 -15 -3 -8 4 -15 10 -15 15 0 4 7 6 15 3 8 -4
15 -10 15 -15z m-73 -21 c-3 -7 -5 -2 -5 12 0 14 2 19 5 13 2 -7 2 -19 0 -25z
m125 12 c18 -11 28 -20 22 -20 -5 0 -20 -9 -32 -21 -26 -23 -50 -16 -30 9 10
12 10 14 1 8 -7 -4 -21 -3 -30 3 -15 8 -12 9 12 7 40 -5 50 3 28 20 -27 20 -8
17 29 -6z m193 8 c14 -6 25 -17 25 -23 0 -7 10 -17 23 -23 12 -6 16 -11 10
-11 -7 -1 -22 8 -32 18 -11 11 -22 17 -25 14 -3 -4 -6 -1 -6 6 0 7 -5 9 -12 5
-6 -4 -8 -3 -4 4 3 5 0 13 -6 15 -7 3 -10 6 -6 6 4 1 19 -4 33 -11z m455 3 c0
-12 -20 -25 -27 -18 -7 7 6 27 18 27 5 0 9 -4 9 -9z m228 -33 c-3 -38 -7 -44
-50 -70 l-48 -27 0 43 c0 41 3 46 43 70 23 14 46 25 50 26 5 0 7 -19 5 -42z
m-238 -8 c0 -5 -5 -10 -11 -10 -5 0 -7 5 -4 10 3 6 8 10 11 10 2 0 4 -4 4 -10z
m-763 -32 c-3 -7 -5 -2 -5 12 0 14 2 19 5 13 2 -7 2 -19 0 -25z m180 0 c-3 -7
-5 -2 -5 12 0 14 2 19 5 13 2 -7 2 -19 0 -25z m-117 12 c0 -5 -2 -10 -4 -10
-3 0 -8 5 -11 10 -3 6 -1 10 4 10 6 0 11 -4 11 -10z m670 0 c0 -5 -4 -10 -10
-10 -5 0 -10 5 -10 10 0 6 5 10 10 10 6 0 10 -4 10 -10z m150 -9 c0 -12 -20
-25 -27 -18 -7 7 6 27 18 27 5 0 9 -4 9 -9z m-750 -20 c12 -23 5 -29 -29 -27
-15 0 -25 8 -27 19 -1 9 2 15 6 12 5 -3 11 -1 15 5 10 16 23 12 35 -9z m706
-18 c-10 -10 -19 5 -10 18 6 11 8 11 12 0 2 -7 1 -15 -2 -18z m-839 -15 c-3
-7 -5 -2 -5 12 0 14 2 19 5 13 2 -7 2 -19 0 -25z m872 1 c-9 -5 -15 -4 -18 2
-2 6 3 15 10 20 9 5 15 4 18 -2 2 -6 -3 -15 -10 -20z m-72 -29 c0 -60 -13 -68
-15 -9 -2 36 3 59 12 59 2 0 3 -22 3 -50z m-465 2 c11 -13 8 -12 -19 2 -18 9
-33 18 -33 20 0 9 41 -8 52 -22z m427 -3 c-9 -5 -15 -4 -18 2 -2 6 3 15 10 20
9 5 15 4 18 -2 2 -6 -3 -15 -10 -20z m79 6 c0 -36 -15 -40 -16 -5 0 17 3 30 7
30 5 0 9 -11 9 -25z m42 5 c0 -5 -7 -10 -16 -10 -8 0 -12 5 -9 10 3 6 10 10
16 10 5 0 9 -4 9 -10z m-867 -14 c9 5 9 4 0 -6 -6 -7 -9 -19 -6 -26 3 -8 1
-14 -4 -14 -4 0 -9 15 -9 33 -1 17 1 26 3 19 3 -6 10 -9 16 -6z m164 -18 c-3
-7 -5 -2 -5 12 0 14 2 19 5 13 2 -7 2 -19 0 -25z m550 -23 c1 -25 -2 -45 -6
-45 -4 0 -8 20 -8 45 -1 25 2 45 6 45 4 0 8 -20 8 -45z m43 26 c0 -12 -20 -25
-27 -18 -7 7 6 27 18 27 5 0 9 -4 9 -9z m228 -33 c-3 -38 -7 -45 -43 -65 -22
-13 -43 -23 -47 -23 -5 0 -8 18 -8 39 0 35 4 41 43 65 23 14 46 25 50 26 5 0
7 -19 5 -42z m-582 7 c10 -8 15 -14 9 -14 -5 0 -19 6 -29 14 -11 8 -15 15 -10
15 6 0 19 -7 30 -15z m-66 -26 c47 -25 54 -33 37 -47 -8 -7 -20 -6 -37 5 -14
8 -17 12 -8 9 10 -3 20 0 24 6 4 7 3 8 -4 4 -7 -4 -12 -3 -12 3 0 6 -6 8 -14
5 -8 -3 -19 3 -26 15 -13 26 -10 26 40 0z m415 11 c-3 -5 -10 -10 -16 -10 -5
0 -9 5 -9 10 0 6 7 10 16 10 8 0 12 -4 9 -10z m113 -50 c0 -19 -4 -30 -13 -30
-9 0 -13 9 -11 28 4 33 4 32 14 32 5 0 9 -13 10 -30z m-701 -12 c-3 -7 -5 -2
-5 12 0 14 2 19 5 13 2 -7 2 -19 0 -25z m661 -23 c-1 -25 -5 -48 -9 -51 -5 -3
-8 18 -8 46 1 27 6 50 10 50 5 0 8 -20 7 -45z m-41 -25 c0 -60 -13 -68 -15 -9
-2 36 3 59 12 59 2 0 3 -22 3 -50z m-38 -1 c-9 -5 -15 -4 -18 2 -2 6 3 15 10
20 9 5 15 4 18 -2 2 -6 -3 -15 -10 -20z m121 13 c0 -13 -12 -22 -22 -16 -10 6
-1 24 13 24 5 0 9 -4 9 -8z m-153 -52 c0 -60 -13 -68 -15 -9 -2 36 3 59 12 59
2 0 3 -22 3 -50z m-663 28 c-5 -8 -1 -9 12 -4 14 5 16 4 8 -4 -6 -6 -19 -8
-28 -4 -14 5 -15 9 -4 15 18 12 20 11 12 -3z m61 -6 c-3 -3 -11 0 -18 7 -9 10
-8 11 6 5 10 -3 15 -9 12 -12z m642 -19 c-1 -14 -9 -29 -17 -31 -13 -4 -13 -3
-2 10 10 13 10 17 1 20 -7 2 -9 10 -5 16 13 21 25 13 23 -15z m233 -12 c0 -36
-4 -42 -50 -70 l-50 -31 0 45 c0 41 3 45 43 69 23 14 45 26 50 26 4 0 7 -18 7
-39z m-843 4 c0 -6 -8 -11 -17 -11 -9 0 -17 5 -17 11 0 6 8 11 17 11 9 0 17
-5 17 -11z m18 -25 c-8 -14 8 -13 22 1 7 7 17 8 28 2 16 -9 16 -10 1 -16 -10
-4 -15 -3 -11 3 8 13 -8 13 -21 0 -6 -6 -19 -8 -28 -4 -14 5 -15 9 -4 15 17
11 20 11 13 -1z m705 -19 c0 -12 -20 -25 -27 -18 -7 7 6 27 18 27 5 0 9 -4 9
-9z m-580 -26 c0 -2 -5 -7 -12 -11 -7 -5 -8 -3 -3 6 6 9 4 12 -7 8 -8 -4 -15
0 -15 7 0 10 5 11 19 4 10 -5 18 -12 18 -14z m540 -15 c0 -16 -5 -30 -11 -30
-6 0 -9 7 -6 15 4 8 2 17 -4 20 -11 7 -3 25 12 25 5 0 9 -13 9 -30z m38 -9 c0
-17 -5 -32 -14 -35 -11 -4 -12 -2 -4 13 7 14 6 21 -3 24 -9 4 -8 8 3 16 8 6
15 11 16 11 1 0 1 -13 2 -29z m-82 -8 c-10 -10 -19 5 -10 18 6 11 8 11 12 0 2
-7 1 -15 -2 -18z m-461 7 c-3 -5 -1 -10 6 -10 7 0 10 -3 6 -6 -9 -9 -28 6 -22
17 4 5 8 9 11 9 3 0 2 -4 -1 -10z m424 -31 c-9 -5 -15 -4 -18 2 -2 6 3 15 10
20 9 5 15 4 18 -2 2 -6 -3 -15 -10 -20z m-624 1 c3 -6 -1 -7 -9 -4 -18 7 -21
14 -7 14 6 0 13 -4 16 -10z m55 -15 c0 -2 -5 -7 -12 -11 -7 -5 -8 -3 -3 6 6 9
4 12 -7 8 -8 -4 -15 0 -15 7 0 10 5 11 19 4 10 -5 18 -12 18 -14z m537 -25 c0
-60 -13 -68 -15 -9 -2 36 3 59 12 59 2 0 3 -22 3 -50z m71 25 c0 -36 -15 -40
-16 -5 0 17 3 30 7 30 5 0 9 -11 9 -25z m-379 -11 c14 -12 -19 -1 -35 12 -18
14 -18 14 6 3 14 -6 27 -13 29 -15z m421 17 c0 -6 -4 -13 -10 -16 -5 -3 -10 1
-10 9 0 9 5 16 10 16 6 0 10 -4 10 -9z m-73 -26 c-2 -30 -19 -38 -23 -11 -3
22 3 36 16 36 5 0 8 -11 7 -25z m233 -14 c0 -36 -4 -42 -50 -70 l-50 -31 0 45
c0 41 3 45 43 69 23 14 45 26 50 26 4 0 7 -18 7 -39z m-796 17 c-5 -8 -1 -9
12 -4 14 5 16 4 7 -5 -13 -13 -37 -3 -28 12 4 5 8 9 11 9 3 0 2 -5 -2 -12z
m-77 -25 c-4 -3 1 -12 11 -20 15 -13 15 -13 -6 -3 -19 9 -23 30 -5 30 4 0 3
-3 0 -7z m148 -2 c3 -5 2 -12 -3 -15 -5 -3 -9 1 -9 9 0 17 3 19 12 6z m-90
-29 c-3 -3 -11 0 -18 7 -9 10 -8 11 6 5 10 -3 15 -9 12 -12z m695 -1 c0 -12
-20 -25 -27 -18 -7 7 6 27 18 27 5 0 9 -4 9 -9z m-663 -28 c0 -8 -6 -9 -19 -2
-10 5 -18 11 -18 12 0 2 8 3 18 3 10 0 19 -6 19 -13z m621 -13 c0 -16 -4 -30
-10 -30 -5 0 -8 7 -5 15 4 8 2 17 -4 20 -5 4 -7 11 -4 16 12 18 22 9 23 -21z
m40 -9 c0 -17 -5 -32 -14 -35 -16 -6 -19 10 -3 20 8 4 7 9 -2 15 -12 8 -11 11
1 19 8 5 15 10 16 10 1 0 1 -13 2 -29z m-494 7 c-5 -8 -2 -9 10 -5 10 4 15 3
11 -3 -3 -6 -1 -10 6 -10 7 0 10 -3 7 -6 -10 -9 -49 16 -43 27 4 5 8 9 11 9 3
0 2 -5 -2 -12z m414 -33 c-1 -25 -5 -48 -9 -50 -5 -4 -6 82 0 93 7 12 11 -6 9
-43z m-903 15 c-3 -5 0 -7 8 -4 8 3 59 -21 113 -52 183 -105 384 -226 397
-237 7 -7 19 -13 27 -15 25 -6 32 -19 15 -26 -9 -3 -13 -2 -10 4 3 6 -3 10
-14 10 -11 0 -26 7 -35 15 -8 8 -20 15 -26 15 -6 0 -45 20 -88 44 -42 23 -99
55 -127 71 -196 108 -286 165 -279 176 3 5 10 9 15 9 6 0 7 -4 4 -10z m865
-15 c-8 -10 -9 -15 -1 -15 16 0 14 -17 -3 -23 -17 -7 -19 44 -3 55 17 11 21 0
7 -17z m-33 -39 c-1 -24 -5 -47 -8 -50 -7 -8 -11 73 -3 85 10 17 13 9 11 -35z
m113 25 c0 -6 -4 -13 -10 -16 -5 -3 -10 1 -10 9 0 9 5 16 10 16 6 0 10 -4 10
-9z m-443 -36 c0 -8 -4 -12 -9 -9 -5 3 -6 10 -3 15 9 13 12 11 12 -6z m373 -4
c0 -12 -20 -25 -27 -18 -7 7 6 27 18 27 5 0 9 -4 9 -9z m70 -36 c0 6 12 11 28
12 l27 1 -30 -16 c-16 -8 -32 -14 -34 -13 -2 2 -7 -1 -10 -6 -5 -7 -101 -68
-143 -90 -5 -2 -8 5 -8 17 0 20 56 64 71 55 4 -3 10 2 13 11 3 8 10 13 15 9 5
-3 12 -1 16 5 4 6 10 8 15 5 4 -3 11 3 14 12 6 15 8 15 16 3 6 -8 10 -10 10
-5z m-150 -229 c0 -2 -7 -7 -16 -10 -8 -3 -12 -2 -9 4 6 10 25 14 25 6z m-51
-33 c-12 -15 -12 -16 6 -9 14 5 17 4 9 -4 -6 -6 -18 -8 -28 -4 -15 6 -15 7 1
20 24 18 28 17 12 -3z m-71 -549 c16 -5 22 -14 22 -34 0 -32 23 -46 40 -24 18
21 37 17 56 -11 16 -24 15 -27 -1 -45 -22 -25 -13 -50 20 -50 23 0 25 -4 25
-40 0 -38 -2 -40 -29 -40 -36 0 -42 -16 -22 -53 15 -27 15 -29 -8 -48 -24 -19
-24 -19 -45 -1 -28 25 -46 17 -46 -19 0 -29 -2 -30 -37 -27 -34 3 -37 6 -38
33 0 35 -27 45 -55 20 -17 -15 -19 -14 -39 11 -21 27 -21 27 -2 48 25 26 11
56 -25 56 -23 0 -25 3 -22 38 3 33 5 37 29 34 33 -4 46 23 24 48 -20 22 -19
29 7 57 l22 23 22 -21 c21 -20 62 -21 51 -2 -6 11 10 53 20 53 4 0 18 -3 31
-6z m472 -539 l0 -45 -480 0 -480 0 0 45 0 45 480 0 480 0 0 -45z"/>
<path d="M2063 1120 c-31 -13 -56 -65 -48 -101 12 -55 85 -87 126 -56 42 33
48 106 11 140 -23 21 -62 28 -89 17z"/>
<path d="M1145 3364 c-33 -20 -179 -106 -325 -191 -146 -85 -273 -164 -282
-175 -16 -18 -18 -43 -18 -197 0 -128 -3 -181 -12 -190 -10 -11 -10 -14 0 -18
20 -8 14 -40 -10 -47 -23 -6 -23 -7 -3 -19 27 -16 31 -44 5 -43 -10 1 -19 -3
-19 -9 0 -5 9 -10 19 -9 11 0 20 -3 20 -8 0 -4 -3 -8 -7 -8 -5 0 -23 -10 -42
-21 -30 -18 -32 -22 -18 -30 11 -6 24 -6 36 1 29 15 38 12 15 -5 -18 -14 -18
-16 -2 -26 12 -7 18 -22 18 -48 0 -68 57 -96 117 -58 21 14 155 93 298 177
143 84 275 161 293 172 63 38 62 30 62 394 0 183 -3 340 -6 349 -5 11 -63 45
-78 45 0 0 -28 -16 -61 -36z m-465 -329 c0 -2 -10 -9 -22 -15 -22 -11 -22 -10
-4 4 21 17 26 19 26 11z m-87 -59 c-10 -13 -20 -22 -22 -20 -4 4 29 44 36 44
2 0 -4 -11 -14 -24z m24 -188 c-2 -13 -4 -3 -4 22 0 25 2 35 4 23 2 -13 2 -33
0 -45z m-20 -5 c-3 -10 -5 -4 -5 12 0 17 2 24 5 18 2 -7 2 -21 0 -30z m-8
-103 l2 45 14 -40 c20 -53 26 -296 8 -302 -7 -3 -13 -11 -13 -19 0 -9 -4 -13
-9 -10 -5 4 -12 0 -14 -6 -3 -7 -5 86 -4 207 0 138 3 194 7 150 5 -58 7 -62 9
-25z"/>
<path d="M2975 3388 c-44 -23 -44 -26 -45 -378 0 -309 1 -339 17 -358 26 -31
660 -402 686 -402 43 0 67 27 67 74 0 40 2 44 40 61 43 20 50 30 23 39 -10 4
-29 16 -43 27 -14 12 -18 19 -9 16 9 -3 22 -1 30 4 12 8 12 10 -1 18 -9 6 -19
6 -27 0 -9 -8 -11 -5 -10 10 1 12 9 24 19 27 31 9 19 30 -14 25 -16 -2 -7 37
10 44 16 6 16 7 0 16 -16 9 -18 29 -18 185 0 101 -4 183 -10 194 -6 11 -88 65
-183 121 -94 56 -243 144 -330 195 -87 52 -163 94 -170 94 -7 0 -21 -6 -32
-12z m595 -364 c0 -2 -9 0 -20 6 -11 6 -20 13 -20 16 0 2 9 0 20 -6 11 -6 20
-13 20 -16z m75 -52 c8 -23 3 -20 -35 17 l-35 35 32 -19 c18 -10 35 -25 38
-33z m4 -419 c1 -125 -3 -204 -9 -208 -5 -3 -10 1 -10 10 0 9 -4 13 -10 10 -6
-4 -10 6 -10 24 0 16 -4 33 -10 36 -11 7 -13 138 -3 198 4 26 9 34 14 25 6 -9
9 -4 9 16 0 20 -4 27 -14 23 -10 -4 -12 0 -9 13 8 32 28 18 35 -25 4 -22 5 10
3 70 -2 81 -1 97 5 60 5 -27 9 -141 9 -252z m-29 230 c0 -7 -4 -13 -10 -13 -5
0 -10 12 -10 28 0 21 2 24 10 12 5 -8 10 -21 10 -27z m117 -389 c-7 -7 -37 7
-37 17 0 6 9 5 21 -1 11 -7 19 -14 16 -16z"/>
<path d="M3726 2588 c-15 -8 -16 -12 -5 -19 8 -5 22 -6 31 -3 13 4 16 1 12 -9
-6 -17 17 -29 36 -17 14 9 5 30 -12 30 -6 0 -19 6 -27 14 -12 11 -21 12 -35 4z"/>
<path d="M455 2580 c-8 -13 20 -24 42 -16 15 6 15 8 3 16 -20 13 -37 12 -45 0z"/>
<path d="M419 2559 c-12 -8 -12 -10 1 -19 17 -11 32 -8 37 7 5 15 -21 23 -38
12z"/>
<path d="M3810 2535 c-10 -12 -9 -16 3 -21 9 -3 24 -1 33 4 16 9 16 10 -3 21
-16 8 -24 7 -33 -4z"/>
<path d="M365 2530 c-8 -13 20 -24 41 -16 20 8 9 26 -16 26 -10 0 -22 -5 -25
-10z"/>
<path d="M441 2521 c-11 -7 -10 -11 6 -19 25 -14 56 3 33 18 -18 12 -21 12
-39 1z"/>
<path d="M3735 2521 c-8 -15 13 -23 38 -15 19 6 20 5 9 -8 -10 -13 -10 -17 4
-22 9 -3 23 -1 31 6 12 10 9 15 -19 29 -38 21 -54 23 -63 10z"/>
<path d="M323 2508 c-28 -14 -29 -25 -4 -33 28 -8 63 15 49 32 -12 15 -16 15
-45 1z"/>
<path d="M3851 2511 c-11 -7 -8 -13 13 -26 21 -14 29 -15 41 -5 13 11 13 14
-2 26 -21 16 -33 17 -52 5z"/>
<path d="M378 2484 c-37 -20 -35 -27 9 -48 30 -14 41 -15 65 -5 15 6 28 15 28
19 0 16 -32 19 -58 6 -25 -13 -28 -13 -28 4 0 13 7 18 23 17 12 -1 23 3 25 8
5 16 -34 15 -64 -1z"/>
<path d="M3820 2470 c-12 -8 -12 -10 3 -16 22 -8 50 3 42 16 -8 12 -25 13 -45
0z"/>
<path d="M3752 2461 c-20 -12 33 -44 60 -35 21 6 21 7 -3 25 -27 21 -38 23
-57 10z"/>
<path d="M575 2034 c-99 -21 -162 -46 -218 -88 -28 -20 -67 -75 -67 -92 0 -5
9 5 19 22 54 88 201 146 376 147 53 0 81 3 70 8 -21 8 -145 10 -180 3z"/>
<path d="M3463 2025 c-119 -26 -203 -78 -240 -150 -12 -22 -4 -17 30 21 74 82
187 124 335 125 45 1 82 5 82 10 0 13 -136 9 -207 -6z"/>
<path d="M3698 2023 c7 -3 16 -2 19 1 4 3 -2 6 -13 5 -11 0 -14 -3 -6 -6z"/>
<path d="M3170 1754 c0 -23 63 -96 107 -124 93 -59 162 -75 323 -75 114 1 154
5 185 18 22 10 29 15 15 12 -94 -19 -175 -26 -240 -21 -182 17 -312 77 -371
171 -11 17 -19 25 -19 19z"/>
<path d="M268 1714 c31 -58 118 -114 227 -145 67 -19 328 -20 347 -1 11 11 5
12 -32 5 -25 -4 -88 -8 -140 -7 -158 2 -290 47 -371 127 -23 23 -37 33 -31 21z"/>
<path d="M2590 1723 c0 -13 481 -284 492 -277 5 4 -97 67 -228 141 -257 146
-264 149 -264 136z"/>
<path d="M1365 1626 c-93 -52 -171 -100 -174 -107 -2 -8 2 -10 14 -5 23 9 327
185 340 197 26 25 -26 0 -180 -85z"/>
<path d="M1105 1560 c-25 -27 -75 -58 -144 -87 -31 -14 -46 -22 -33 -20 12 3
20 1 16 -4 -3 -5 -13 -9 -22 -9 -24 -1 -52 -24 -52 -44 0 -19 4 -20 31 -6 13
7 19 7 19 0 0 -5 -5 -10 -12 -10 -6 0 -9 -2 -6 -6 10 -9 131 45 170 76 20 17
42 30 47 30 6 0 11 21 11 50 0 28 -2 50 -3 50 -2 0 -12 -9 -22 -20z m5 -48 c0
-10 -44 -43 -87 -66 -29 -14 -33 -15 -33 -1 0 8 15 21 33 29 17 8 41 21 52 30
22 17 35 20 35 8z"/>
<path d="M4021 1554 c-27 -28 -83 -60 -151 -86 -25 -9 -38 -18 -30 -18 8 0 0
-7 -19 -15 -18 -8 -37 -12 -42 -9 -5 3 -9 -8 -9 -23 0 -22 5 -29 20 -29 11 0
20 3 20 6 0 4 14 4 31 2 24 -4 30 -2 24 8 -5 9 -4 11 3 6 15 -9 90 24 135 58
19 14 39 26 45 26 8 0 12 19 12 50 0 28 -3 50 -7 50 -5 0 -19 -12 -32 -26z
m-16 -70 c-39 -33 -85 -57 -93 -50 -8 9 10 24 65 56 56 33 71 29 28 -6z"/>
<path d="M175 1410 c44 -145 282 -251 535 -238 47 2 96 10 108 17 27 14 22 28
-5 16 -20 -9 -220 -8 -268 1 -84 15 -206 59 -255 93 -30 21 -70 60 -89 87 -20
30 -30 39 -26 24z"/>
<path d="M833 1413 c-22 -8 -15 -42 7 -40 14 1 20 8 20 24 0 23 -4 26 -27 16z"/>
<path d="M770 1385 c0 -18 5 -23 20 -22 13 1 20 8 20 22 0 14 -7 21 -20 22
-15 1 -20 -4 -20 -22z"/>
<path d="M3100 1402 c0 -17 57 -87 93 -115 46 -35 132 -75 200 -93 69 -19 219
-29 293 -19 88 11 42 23 -92 24 -208 2 -371 64 -466 179 -16 19 -28 29 -28 24z"/>
<path d="M3688 1403 c-25 -6 -23 -43 2 -43 15 0 20 7 20 25 0 14 -1 24 -2 24
-2 -1 -11 -3 -20 -6z"/>
<path d="M3720 1386 c0 -19 4 -23 20 -19 11 3 20 14 20 24 0 12 -7 19 -20 19
-14 0 -20 -7 -20 -24z"/>
<path d="M670 1380 c0 -11 5 -20 10 -20 6 0 10 9 10 20 0 11 -4 20 -10 20 -5
0 -10 -9 -10 -20z"/>
<path d="M700 1380 c0 -13 7 -20 20 -20 13 0 20 7 20 20 0 13 -7 20 -20 20
-13 0 -20 -7 -20 -20z"/>
<path d="M752 1380 c0 -14 2 -19 5 -12 2 6 2 18 0 25 -3 6 -5 1 -5 -13z"/>
<path d="M3602 1380 c0 -14 2 -19 5 -12 2 6 2 18 0 25 -3 6 -5 1 -5 -13z"/>
<path d="M3620 1379 c0 -10 5 -19 10 -19 6 0 10 6 10 13 0 8 4 7 10 -3 8 -12
10 -11 10 5 0 14 -7 21 -20 22 -14 1 -20 -4 -20 -18z"/>
<path d="M1075 1199 c-27 -21 -69 -46 -92 -55 -24 -9 -43 -23 -43 -31 0 -8 -4
-12 -9 -9 -5 4 -11 1 -13 -4 -2 -6 -13 -12 -26 -13 -16 -1 -22 -8 -22 -24 0
-20 3 -21 26 -13 19 7 23 7 18 -2 -5 -8 -2 -9 12 -4 10 4 24 9 29 10 35 8 66
23 108 52 26 19 52 34 57 34 6 0 10 23 10 50 0 28 -1 50 -2 49 -2 0 -25 -18
-53 -40z m17 -42 c-12 -13 -40 -33 -62 -46 -32 -18 -40 -19 -40 -8 0 8 24 29
53 45 63 37 78 40 49 9z"/>
<path d="M4021 1216 c-13 -13 -49 -38 -82 -56 -38 -20 -57 -36 -52 -43 4 -7 0
-6 -10 2 -15 12 -17 11 -17 -4 0 -14 -3 -15 -14 -6 -12 10 -13 8 -9 -8 4 -16
1 -19 -16 -16 -33 6 -51 -5 -51 -32 0 -13 4 -21 10 -18 5 3 31 9 57 12 55 6
142 44 168 73 10 11 26 20 37 20 15 0 18 8 18 50 0 28 -4 50 -8 50 -5 0 -19
-11 -31 -24z m3 -51 c-5 -12 -96 -75 -109 -75 -3 0 -5 6 -5 14 0 8 21 25 46
37 25 13 48 27 50 31 9 14 24 8 18 -7z"/>
<path d="M3810 1220 c-20 -6 -21 -8 -5 -8 11 0 29 3 40 8 25 11 -1 11 -35 0z"/>
<path d="M866 1203 c-6 -14 -5 -15 5 -6 7 7 10 15 7 18 -3 3 -9 -2 -12 -12z"/>
<path d="M3745 1200 c3 -5 18 -10 33 -9 24 0 25 1 7 9 -28 12 -47 12 -40 0z"/>
<path d="M175 1070 c26 -87 135 -167 287 -210 82 -24 273 -37 283 -20 4 6 15
8 26 5 22 -7 59 2 59 16 0 5 -9 9 -21 9 -11 0 -18 -3 -16 -7 7 -11 -173 -5
-250 7 -159 26 -290 94 -345 179 -19 29 -27 37 -23 21z"/>
<path d="M820 1054 c0 -33 33 -30 38 4 3 17 -2 22 -17 22 -16 0 -21 -6 -21
-26z"/>
<path d="M3738 1073 c-25 -6 -23 -43 2 -43 15 0 20 7 20 25 0 14 -1 24 -2 24
-2 -1 -11 -3 -20 -6z"/>
<path d="M752 1045 c0 -16 2 -22 5 -12 2 9 2 23 0 30 -3 6 -5 -1 -5 -18z"/>
<path d="M770 1046 c0 -19 4 -23 20 -19 11 3 20 14 20 24 0 12 -7 19 -20 19
-14 0 -20 -7 -20 -24z"/>
<path d="M3100 1063 c0 -23 61 -91 111 -126 106 -73 290 -115 447 -102 45 4
82 11 82 16 0 6 6 7 13 3 6 -4 9 -4 5 0 -3 4 -75 9 -160 10 -127 2 -165 6
-223 25 -104 34 -181 78 -231 134 -24 27 -44 45 -44 40z"/>
<path d="M3670 1044 c0 -17 5 -24 20 -24 14 0 20 7 20 23 0 16 -6 23 -20 24
-15 1 -20 -4 -20 -23z"/>
<path d="M670 1040 c0 -11 5 -20 10 -20 6 0 10 9 10 20 0 11 -4 20 -10 20 -5
0 -10 -9 -10 -20z"/>
<path d="M701 1038 c0 -22 1 -22 9 -3 7 17 9 17 9 3 1 -25 21 -23 21 2 0 13
-7 20 -20 20 -14 0 -20 -6 -19 -22z"/>
<path d="M3602 1040 c0 -14 2 -19 5 -12 2 6 2 18 0 25 -3 6 -5 1 -5 -13z"/>
<path d="M3620 1041 c0 -14 6 -19 20 -18 13 1 20 8 20 22 0 16 -2 17 -10 5 -6
-10 -10 -11 -10 -2 0 6 -4 12 -10 12 -5 0 -10 -9 -10 -19z"/>
<path d="M4015 874 c-22 -19 -70 -49 -107 -66 -37 -17 -65 -35 -62 -39 4 -7
-53 -25 -68 -21 -5 1 -8 -9 -8 -22 0 -22 4 -24 28 -19 15 3 36 6 47 7 11 1 26
6 34 10 10 6 12 5 7 -3 -12 -18 106 44 127 67 11 11 25 18 33 15 11 -4 14 7
14 51 0 31 -1 56 -2 56 -2 -1 -21 -17 -43 -36z m10 -45 c-6 -16 -86 -69 -104
-69 -26 0 -8 21 38 45 27 13 53 30 56 35 9 15 17 6 10 -11z"/>
<path d="M1101 879 c-37 -30 -140 -89 -157 -89 -7 0 -14 -4 -14 -10 0 -5 8 -7
18 -3 9 3 14 3 10 -1 -3 -4 -12 -9 -20 -10 -55 -11 -68 -19 -68 -42 0 -21 3
-23 26 -14 32 13 37 13 28 -1 -4 -8 0 -8 15 0 11 7 21 9 21 6 0 -3 9 -1 20 5
11 6 18 15 15 20 -3 6 1 7 9 4 8 -3 36 9 63 28 26 18 51 32 56 30 4 -1 7 21 7
48 0 28 -1 50 -2 50 -2 -1 -14 -10 -27 -21z m2 -44 c-6 -18 -86 -75 -103 -75
-24 0 -2 25 42 50 26 14 50 28 54 33 11 11 14 8 7 -8z"/>
<path d="M3820 880 c0 -5 5 -10 11 -10 5 0 7 5 4 10 -3 6 -8 10 -11 10 -2 0
-4 -4 -4 -10z"/>
<path d="M1168 734 c-41 -83 -153 -156 -294 -191 -105 -26 -306 -24 -407 5
-89 25 -160 59 -206 97 -20 18 -31 22 -32 13 0 -7 -2 -22 -4 -32 -3 -13 11
-35 38 -62 33 -33 60 -48 127 -69 80 -27 96 -28 265 -29 199 -1 271 9 400 56
125 45 205 113 205 174 0 22 -44 84 -60 84 -5 0 -19 -21 -32 -46z"/>
<path d="M845 740 c-4 -6 -11 -8 -16 -5 -5 4 -9 -5 -9 -18 0 -20 4 -24 20 -20
13 3 20 14 20 29 0 26 -5 30 -15 14z"/>
<path d="M4086 722 c-36 -70 -139 -136 -273 -174 -63 -18 -103 -22 -208 -22
-198 0 -338 45 -443 139 -48 43 -51 45 -61 26 -105 -196 527 -292 872 -133
106 50 165 116 150 170 -7 30 -20 28 -37 -6z"/>
<path d="M788 733 c-25 -6 -23 -43 2 -43 15 0 20 7 20 25 0 14 -1 24 -2 24 -2
-1 -11 -3 -20 -6z"/>
<path d="M3738 733 c-25 -6 -23 -38 2 -40 15 -1 20 4 20 23 0 13 -1 23 -2 23
-2 -1 -11 -3 -20 -6z"/>
<path d="M677 723 c-11 -10 -8 -43 3 -43 6 0 10 11 10 25 0 26 -2 29 -13 18z"/>
<path d="M700 710 c0 -19 6 -26 20 -27 15 -1 20 4 20 23 0 13 -4 24 -10 24 -5
0 -10 -6 -10 -12 0 -9 -4 -8 -10 2 -8 12 -10 10 -10 -10z"/>
<path d="M752 705 c0 -16 2 -22 5 -12 2 9 2 23 0 30 -3 6 -5 -1 -5 -18z"/>
<path d="M3602 705 c0 -16 2 -22 5 -12 2 9 2 23 0 30 -3 6 -5 -1 -5 -18z"/>
<path d="M3652 705 c0 -16 2 -22 5 -12 2 9 2 23 0 30 -3 6 -5 -1 -5 -18z"/>
<path d="M3670 706 c0 -19 4 -23 20 -19 11 3 20 14 20 24 0 12 -7 19 -20 19
-14 0 -20 -7 -20 -24z"/>
<path d="M3620 700 c0 -11 5 -20 10 -20 6 0 10 9 10 20 0 11 -4 20 -10 20 -5
0 -10 -9 -10 -20z"/>
<path d="M1610 435 c0 -8 8 -15 19 -15 10 0 24 7 31 15 11 13 8 15 -19 15 -21
0 -31 -5 -31 -15z"/>
<path d="M1687 443 c-15 -14 -6 -24 20 -21 34 4 43 28 11 28 -14 0 -28 -3 -31
-7z"/>
<path d="M1760 435 c0 -9 9 -15 24 -15 13 0 26 7 30 15 4 11 -2 15 -24 15 -20
0 -30 -5 -30 -15z"/>
<path d="M1840 434 c0 -10 7 -14 22 -12 32 5 35 28 4 28 -17 0 -26 -5 -26 -16z"/>
<path d="M1910 434 c0 -11 8 -14 27 -12 39 4 42 28 4 28 -21 0 -31 -5 -31 -16z"/>
<path d="M1990 435 c0 -9 9 -15 25 -15 16 0 25 6 25 15 0 9 -9 15 -25 15 -16
0 -25 -6 -25 -15z"/>
<path d="M2070 435 c0 -9 9 -15 25 -15 16 0 25 6 25 15 0 9 -9 15 -25 15 -16
0 -25 -6 -25 -15z"/>
<path d="M2143 438 c2 -7 14 -13 27 -13 13 0 25 6 28 13 2 8 -7 12 -28 12 -21
0 -30 -4 -27 -12z"/>
<path d="M2220 435 c0 -9 9 -15 25 -15 16 0 25 6 25 15 0 9 -9 15 -25 15 -16
0 -25 -6 -25 -15z"/>
<path d="M2296 435 c4 -8 17 -15 30 -15 15 0 24 6 24 15 0 10 -10 15 -30 15
-22 0 -28 -4 -24 -15z"/>
<path d="M2372 438 c3 -7 17 -14 32 -16 20 -3 27 0 24 10 -3 7 -17 14 -32 16
-20 3 -27 0 -24 -10z"/>
<path d="M2450 435 c0 -9 9 -15 25 -15 16 0 25 6 25 15 0 9 -9 15 -25 15 -16
0 -25 -6 -25 -15z"/>
<path d="M2522 438 c3 -7 22 -16 44 -19 21 -3 31 -7 22 -8 -30 -2 -20 -21 11
-21 28 0 29 1 18 30 -10 27 -16 30 -55 30 -30 0 -42 -4 -40 -12z"/>
<path d="M1590 400 c0 -5 20 -10 45 -10 25 0 45 5 45 10 0 6 -20 10 -45 10
-25 0 -45 -4 -45 -10z"/>
<path d="M1700 400 c0 -5 11 -10 24 -10 14 0 28 5 31 10 4 6 -7 10 -24 10 -17
0 -31 -4 -31 -10z"/>
<path d="M1780 400 c0 -5 11 -10 24 -10 14 0 28 5 31 10 4 6 -7 10 -24 10 -17
0 -31 -4 -31 -10z"/>
<path d="M1860 400 c0 -5 11 -10 25 -10 14 0 25 5 25 10 0 6 -11 10 -25 10
-14 0 -25 -4 -25 -10z"/>
<path d="M1940 400 c0 -5 11 -10 25 -10 14 0 25 5 25 10 0 6 -11 10 -25 10
-14 0 -25 -4 -25 -10z"/>
<path d="M2020 400 c0 -5 11 -10 25 -10 14 0 25 5 25 10 0 6 -11 10 -25 10
-14 0 -25 -4 -25 -10z"/>
<path d="M2100 400 c0 -5 11 -10 25 -10 14 0 25 5 25 10 0 6 -11 10 -25 10
-14 0 -25 -4 -25 -10z"/>
<path d="M2180 400 c0 -5 11 -10 25 -10 14 0 25 5 25 10 0 6 -11 10 -25 10
-14 0 -25 -4 -25 -10z"/>
<path d="M2260 400 c0 -5 11 -10 25 -10 14 0 25 5 25 10 0 6 -11 10 -25 10
-14 0 -25 -4 -25 -10z"/>
<path d="M2340 400 c0 -5 11 -10 25 -10 14 0 25 5 25 10 0 6 -11 10 -25 10
-14 0 -25 -4 -25 -10z"/>
<path d="M2415 400 c3 -5 17 -10 31 -10 13 0 24 5 24 10 0 6 -14 10 -31 10
-17 0 -28 -4 -24 -10z"/>
<path d="M2490 400 c0 -5 14 -10 30 -10 17 0 30 5 30 10 0 6 -13 10 -30 10
-16 0 -30 -4 -30 -10z"/>
<path d="M1577 373 c-17 -16 -3 -23 52 -23 43 0 60 4 65 15 4 12 -5 15 -53 15
-32 0 -61 -3 -64 -7z"/>
<path d="M1717 373 c-15 -14 -6 -24 20 -21 34 4 43 28 11 28 -14 0 -28 -3 -31
-7z"/>
<path d="M1797 373 c-15 -14 -6 -23 23 -23 20 0 30 5 30 15 0 15 -40 21 -53 8z"/>
<path d="M1877 373 c-15 -14 -6 -23 23 -23 20 0 30 5 30 15 0 15 -40 21 -53 8z"/>
<path d="M1956 365 c-4 -11 2 -15 24 -15 20 0 30 5 30 15 0 9 -9 15 -24 15
-13 0 -26 -7 -30 -15z"/>
<path d="M2040 365 c0 -10 10 -15 30 -15 20 0 30 5 30 15 0 10 -10 15 -30 15
-20 0 -30 -5 -30 -15z"/>
<path d="M2127 373 c-15 -14 -6 -23 23 -23 20 0 30 5 30 15 0 15 -40 21 -53 8z"/>
<path d="M2210 365 c0 -10 10 -15 30 -15 22 0 28 4 24 15 -4 8 -17 15 -30 15
-15 0 -24 -6 -24 -15z"/>
<path d="M2290 366 c0 -11 10 -16 31 -16 38 0 35 24 -4 28 -19 2 -27 -1 -27
-12z"/>
<path d="M2370 366 c0 -11 10 -16 31 -16 38 0 35 24 -4 28 -19 2 -27 -1 -27
-12z"/>
<path d="M2452 368 c3 -7 17 -14 32 -16 20 -3 27 0 24 10 -3 7 -17 14 -32 16
-20 3 -27 0 -24 -10z"/>
<path d="M2530 366 c0 -13 12 -16 56 -16 73 0 70 24 -4 28 -42 2 -52 0 -52
-12z"/>
<path d="M1556 331 c-4 -5 0 -12 6 -14 8 -4 7 -6 -3 -6 -9 -1 -19 -8 -23 -16
-4 -12 4 -15 44 -15 37 0 50 4 50 14 0 8 -12 17 -27 19 -16 2 -2 5 29 6 85 2
84 21 -1 21 -38 0 -72 -4 -75 -9z"/>
<path d="M1710 330 c0 -5 14 -10 30 -10 17 0 30 5 30 10 0 6 -13 10 -30 10
-16 0 -30 -4 -30 -10z"/>
<path d="M1795 330 c-4 -6 6 -10 24 -10 16 0 33 5 36 10 4 6 -6 10 -24 10 -16
0 -33 -4 -36 -10z"/>
<path d="M1880 330 c0 -5 14 -10 30 -10 17 0 30 5 30 10 0 6 -13 10 -30 10
-16 0 -30 -4 -30 -10z"/>
<path d="M1965 330 c-4 -6 8 -10 29 -10 20 0 36 5 36 10 0 6 -13 10 -29 10
-17 0 -33 -4 -36 -10z"/>
<path d="M2050 325 c0 -10 10 -15 30 -15 20 0 30 5 30 15 0 10 -10 15 -30 15
-20 0 -30 -5 -30 -15z"/>
<path d="M2140 325 c0 -10 10 -15 30 -15 20 0 30 5 30 15 0 10 -10 15 -30 15
-20 0 -30 -5 -30 -15z"/>
<path d="M2230 325 c0 -10 10 -15 30 -15 20 0 30 5 30 15 0 10 -10 15 -30 15
-20 0 -30 -5 -30 -15z"/>
<path d="M2315 319 c5 -14 3 -20 -7 -18 -24 3 -38 -1 -38 -11 0 -5 16 -10 35
-10 26 0 33 3 29 15 -5 11 1 15 20 15 18 0 24 4 20 15 -4 9 -19 15 -36 15 -25
0 -28 -3 -23 -21z"/>
<path d="M2400 320 c0 -13 -7 -20 -20 -20 -11 0 -20 -4 -20 -10 0 -5 14 -10
31 -10 24 0 30 4 25 15 -4 11 1 15 19 15 16 0 25 6 25 15 0 10 -10 15 -30 15
-23 0 -30 -4 -30 -20z"/>
<path d="M2482 328 c3 -7 14 -14 26 -16 12 -2 22 -10 22 -18 0 -9 11 -14 30
-14 32 0 41 16 13 23 -11 3 -7 5 10 6 18 1 27 -4 27 -14 0 -10 10 -15 30 -15
34 0 34 0 18 35 -11 24 -15 25 -95 25 -63 0 -84 -3 -81 -12z"/>
<path d="M1646 294 c-5 -12 1 -15 26 -12 42 4 50 28 10 28 -18 0 -32 -6 -36
-16z"/>
<path d="M1737 303 c-15 -14 -6 -23 22 -23 16 0 31 6 35 15 4 11 -2 15 -23 15
-15 0 -31 -3 -34 -7z"/>
<path d="M1816 295 c-5 -13 23 -15 209 -15 118 0 215 4 215 8 0 5 -68 12 -152
15 -230 10 -265 9 -272 -8z"/>
<path d="M2457 302 c-9 -2 -15 -8 -12 -13 8 -12 65 -12 65 0 0 11 -29 18 -53
13z"/>
</g>
</svg>
